<?xml version="1.0" standalone="no"?>
<!DOCTYPE svg PUBLIC "-//W3C//DTD SVG 20010904//EN"
 "http://www.w3.org/TR/2001/REC-SVG-20010904/DTD/svg10.dtd">
<svg version="1.0" xmlns="http://www.w3.org/2000/svg"
 width="212.000000pt" height="301.000000pt" viewBox="0 0 212.000000 301.000000"
 preserveAspectRatio="xMidYMid meet">
<metadata>
Created by potrace 1.16, written by Peter Selinger 2001-2019
</metadata>
<g transform="translate(0.000000,301.000000) scale(0.100000,-0.100000)" stroke="none">
<path d="M745 2934 c-238 -57 -397 -160 -517 -337 -140 -206 -169 -492 -75
-727 116 -286 408 -490 703 -490 l54 0 0 83 c0 69 4 92 26 135 86 173 326 196
442 41 l36 -49 34 33 c82 78 158 220 193 357 18 71 21 103 16 210 -6 143 -25
219 -90 345 -59 114 -199 254 -316 314 -134 70 -186 82 -346 86 -77 2 -149 2
-160 -1z m486 -523 c21 -22 29 -39 29 -66 0 -34 -14 -51 -197 -238 -108 -111
-206 -207 -217 -214 -12 -7 -37 -12 -56 -13 -31 0 -47 12 -162 129 -121 121
-128 130 -128 168 0 51 30 90 74 99 45 8 66 -5 154 -89 l72 -71 163 162 c153
152 166 162 201 162 28 0 45 -7 67 -29z"/>
<path d="M1121 1592 c-71 -38 -71 -40 -71 -484 0 -317 -3 -398 -13 -398 -7 0
-42 30 -77 66 -73 74 -105 94 -150 94 -70 0 -120 -53 -120 -127 0 -48 -3 -44
205 -293 176 -210 207 -239 310 -287 60 -28 61 -28 265 -28 l205 0 70 34 c119
59 203 172 224 301 15 89 3 425 -16 462 -28 56 -111 74 -170 38 l-33 -20 -14
35 c-17 41 -68 75 -112 75 -17 0 -47 -11 -67 -24 l-35 -24 -7 26 c-15 63 -88
102 -149 82 -19 -6 -40 -18 -48 -27 -11 -14 -14 20 -18 208 -6 249 -9 262 -75
293 -43 21 -63 20 -104 -2z"/>
</g>
</svg>
