<?xml version="1.0" standalone="no"?>
<!DOCTYPE svg PUBLIC "-//W3C//DTD SVG 20010904//EN"
 "http://www.w3.org/TR/2001/REC-SVG-20010904/DTD/svg10.dtd">
<svg version="1.0" xmlns="http://www.w3.org/2000/svg"
 width="805.000000pt" height="943.000000pt" viewBox="0 0 805.000000 943.000000"
 preserveAspectRatio="xMidYMid meet">
<metadata>
Created by potrace 1.16, written by Peter Selinger 2001-2019
</metadata>
<g transform="translate(0.000000,943.000000) scale(0.100000,-0.100000)" stroke="none">
<path d="M3920 9189 c-36 -27 -141 -101 -235 -163 -960 -641 -1972 -946 -3142
-946 l-203 0 0 -47 c0 -78 19 -476 30 -643 89 -1311 335 -2469 740 -3485 587
-1471 1487 -2644 2732 -3558 l148 -109 127 93 c569 414 1107 926 1539 1464
1133 1411 1787 3264 1949 5520 15 209 35 613 35 711 l0 51 -307 6 c-314 6
-505 21 -763 57 -870 124 -1692 462 -2453 1008 -71 51 -129 92 -130 91 -1 0
-31 -23 -67 -50z m168 -587 c116 -78 325 -201 497 -294 739 -397 1582 -633
2448 -684 64 -3 119 -9 121 -13 5 -9 -21 -371 -44 -611 -134 -1390 -460 -2579
-994 -3625 -149 -291 -256 -476 -430 -740 -426 -645 -937 -1205 -1553 -1702
l-143 -115 -122 98 c-409 328 -788 700 -1116 1096 -213 257 -492 658 -678 973
-118 202 -352 667 -449 895 -331 781 -557 1623 -689 2570 -45 323 -88 756
-102 1036 l-7 131 119 7 c1030 61 1995 373 2869 928 66 42 129 84 140 92 11 8
26 16 33 16 7 0 52 -26 100 -58z"/>
<path d="M3940 8464 c-151 -109 -627 -367 -885 -480 -617 -270 -1312 -444
-1945 -489 -47 -3 -96 -8 -109 -11 l-24 -5 7 -112 c14 -246 59 -670 101 -967
250 -1737 862 -3207 1807 -4335 303 -362 661 -716 1002 -990 l96 -77 73 58
c355 285 733 658 1039 1025 1025 1234 1646 2839 1853 4794 36 345 54 599 43
606 -5 3 -57 9 -115 13 -218 14 -507 56 -778 112 -695 145 -1360 416 -2000
815 -60 38 -114 69 -120 69 -5 -1 -26 -12 -45 -26z"/>
</g>
</svg>
