<?xml version="1.0" standalone="no"?>
<!DOCTYPE svg PUBLIC "-//W3C//DTD SVG 20010904//EN"
 "http://www.w3.org/TR/2001/REC-SVG-20010904/DTD/svg10.dtd">
<svg version="1.0" xmlns="http://www.w3.org/2000/svg"
 width="900.000000pt" height="940.000000pt" viewBox="0 0 900.000000 940.000000"
 preserveAspectRatio="xMidYMid meet">
<metadata>
Created by potrace 1.16, written by Peter Selinger 2001-2019
</metadata>
<g transform="translate(0.000000,940.000000) scale(0.100000,-0.100000)"
fill="#000000" stroke="none">
<path d="M4524 9288 c-17 -18 -143 -168 -281 -333 -137 -165 -480 -577 -762
-915 l-514 -615 397 -3 396 -2 0 -1307 0 -1306 163 -161 c219 -218 390 -418
541 -633 32 -46 59 -83 61 -83 2 0 25 30 51 67 163 228 424 520 637 712 l127
114 2 1296 3 1296 394 5 394 5 -180 215 c-99 118 -426 512 -728 875 -551 664
-639 769 -660 793 -8 9 -17 5 -41 -20z"/>
<path d="M2265 6355 c-344 -86 -634 -172 -1195 -352 -317 -101 -737 -233 -837
-263 -40 -12 -73 -26 -73 -32 0 -5 111 -208 247 -451 476 -853 671 -1228 809
-1549 32 -76 61 -138 64 -138 3 0 61 151 130 335 68 184 129 335 136 335 6 0
72 -33 145 -73 949 -520 1484 -1094 1756 -1880 72 -211 155 -560 178 -750 4
-32 9 -56 11 -55 2 2 17 89 34 193 73 455 195 911 347 1300 71 183 240 525
342 694 45 74 81 138 81 141 0 13 -162 235 -255 350 -446 553 -1019 999 -1852
1444 -101 54 -183 100 -183 103 0 12 97 218 212 447 65 131 117 242 116 246
-2 5 -97 -16 -213 -45z"/>
<path d="M6530 6345 c0 -3 18 -38 39 -78 57 -103 291 -596 291 -612 0 -7 -73
-51 -162 -98 -1009 -526 -1710 -1132 -2183 -1889 -114 -183 -294 -538 -373
-738 -224 -571 -358 -1186 -417 -1912 -13 -165 -38 -768 -32 -774 1 -1 245 -7
542 -14 297 -6 637 -15 755 -20 118 -5 241 -9 273 -10 l57 0 0 243 c0 1095
180 1862 577 2461 214 322 544 644 926 904 212 144 639 393 652 380 2 -2 61
-154 130 -338 68 -183 126 -335 128 -336 2 -2 32 63 67 144 108 253 350 720
669 1294 169 304 326 588 350 630 l42 77 -118 36 c-65 20 -309 98 -543 172
-814 259 -1070 336 -1418 424 -239 60 -252 63 -252 54z"/>
</g>
</svg>
