<?xml version="1.0" encoding="utf-8"?>
<!-- Generator: Adobe Illustrator 23.0.0, SVG Export Plug-In . SVG Version: 6.00 Build 0)  -->
<svg version="1.1" id="Слой_1" xmlns="http://www.w3.org/2000/svg" xmlns:xlink="http://www.w3.org/1999/xlink" x="0px" y="0px"
	 viewBox="0 0 726.4 193" style="enable-background:new 0 0 726.4 193;" xml:space="preserve">
<g>
	<g transform="translate(0.000000,193.000000) scale(0.100000,-0.100000)">
		<path d="M690,1844c-70-19-125-51-179-105c-44-45-94-131-105-185c-6-27-14-32-67-49c-111-33-214-132-254-245c-9-25-19-80-22-122
			l-6-78h172h171V960V860H230H60v-59c0-75,29-170,72-233c43-65,131-130,206-154l60-19l17-59C464,174,625,60,805,60h55v165v165h100
			h100V225V60h55c83,0,147,18,217,59c79,48,151,138,175,220c17,57,18,59,65,71c62,16,156,76,196,128c56,70,84,144,90,238l5,84h-167
			h-166v100v100h165h165v59c0,114-59,242-145,313c-37,31-120,73-161,82c-27,6-32,13-43,57c-18,68-82,160-142,205
			c-68,50-140,75-231,81l-78,6v-167v-166H960H860v165v165l-57-1C771,1859,720,1852,690,1844z M730,1620v-90h-95c-109,0-110,2-65,73
			c30,48,109,107,142,107C728,1710,730,1700,730,1620z M1273,1680c45-28,107-108,107-137c0-10-24-13-95-13h-95v90
			C1190,1725,1196,1729,1273,1680z M728,1293l-3-98l-97-3l-98-3v101v100h100h101L728,1293z M1060,1225v-165h165h165V960V860h-165
			h-165V695V530H960H860v165v165H695H530v100v100h165h165v165v165h100h100V1225z M1390,1290v-101l-97,3l-98,3l-3,98l-3,97h101h100
			V1290z M390,1285v-95h-90c-80,0-90,2-90,18c0,33,59,112,107,142C388,1395,390,1394,390,1285z M1613,1342c43-29,70-64,92-116l15-36
			h-95h-95v96c0,94,0,95,23,89C1565,1371,1592,1356,1613,1342z M390,635c0-110-2-111-75-63c-49,32-105,107-105,140c0,16,10,18,90,18
			h90V635z M728,628l3-98H630H530v100v101l98-3l97-3L728,628z M1390,630V530h-100h-100v93c0,52,3,97,7,100c3,4,48,7,100,7h93V630z
			 M1710,715c0-24-35-87-62-111c-30-28-89-64-105-64c-10,0-13,26-13,95v95h90C1694,730,1710,727,1710,715z M730,300
			c0-101-3-104-68-71c-42,22-70,50-101,101c-34,58-31,60,74,60h95V300z M1380,378c0-17-36-76-64-106c-25-28-111-74-120-65
			c-3,4-6,46-6,95v88h95C1354,390,1380,387,1380,378z"/>
	</g>
	<g>
		<path d="M269.4,116.9h-5.9l-0.2,0.2v29.6h-14.1v-29.8H221v-13.4L250.1,38h13.3V104h6.1V116.9z M249.4,104V65.6l-0.3,0.1L232.2,104
			H249.4z"/>
		<path d="M342.4,146.7h-16.6l-23.3-54.5h-0.4v54.5h-14.6V39.5h14.6v53.1h0.4l25-53.1h14.7l-26.1,52L342.4,146.7z"/>
		<path d="M445.3,108.8c0,12.3-2.1,21.9-6.3,28.7s-11.6,10.2-22.3,10.2c-9.5,0-16.4-3.5-20.7-10.6c-4.3-7-6.4-20.6-6.4-40.6
			c0-2.4,0.3-8.6,0.8-18.8s1.2-17.1,2.2-20.7c1-3.6,2.6-7,4.9-10.1c2.3-3.1,5.2-5.4,8.8-7c3.5-1.5,7.7-2.3,12.5-2.3
			c6.7,0,12.5,2,17.4,6.1c4.9,4.1,7.6,9.4,8.1,16.1l-13.6,5c-1.1-10.3-5.1-15.5-11.9-15.5c-5.2,0-8.9,2.7-10.9,8
			c-2,5.4-3.1,14.2-3.1,26.6v5.5c0,7.2,0.2,14,0.7,20.6c0.4,6.5,0.9,11.3,1.3,14.4c0.4,3,1.2,5.4,2.4,7.2c1.2,1.8,2.5,3,3.9,3.6
			c1.4,0.6,3,0.9,4.8,0.9c3.5,0,6.2-1.1,8.1-3.2c1.9-2.1,3.2-5.2,4-9.2c0.7-4,1.1-10.8,1.1-20.5h-13.1V90.7h27.4V108.8z"/>
		<path d="M509.9,146.7h-15l-16.8-50.3h-1.3v50.3h-14.5V39.5h20c16.3,0,24.5,9.1,24.5,27.4c0,8.3-1.2,14.6-3.6,18.8
			c-2.4,4.2-6.3,7.4-11.8,9.5L509.9,146.7z M476.8,86.5c5.6-0.1,9.7-1.4,12.2-4c2.5-2.6,3.7-7.2,3.7-13.9c0-6.5-1.1-11.1-3.4-13.8
			c-2.3-2.7-6.2-4.1-11.7-4.1h-0.8V86.5z"/>
		<path d="M523.3,92.8c0-23.3,2.3-38.3,6.9-45.2c4.6-6.8,12.1-10.3,22.6-10.3c12,0,20,3.8,23.9,11.5c4,7.7,5.9,21.4,5.9,41.3
			c0,17.8-0.9,30.2-2.7,37.1s-4.8,12-9.2,15.2c-4.3,3.3-10.3,4.9-17.7,4.9c-7.7,0-13.6-1.5-17.7-4.5c-4.1-3-7.1-7.9-9.1-14.6
			C524.3,121.6,523.3,109.7,523.3,92.8z M567.5,93.6c0-20.3-1.2-32.9-3.6-37.7c-2.4-4.8-6-7.2-10.8-7.2c-5.6,0-9.5,2.9-11.6,8.6
			c-2.1,5.7-3.1,15.4-3.1,29v5.9c0,15.2,0.8,26.3,2.5,33.3c1.7,7,5.7,10.5,12.2,10.5c3.9,0,7.3-2,10.1-5.9s4.2-14.8,4.2-32.5V93.6z"
			/>
		<path d="M653.9,121.4c0,17.9-8,26.8-24.1,26.8c-17.6,0-26.4-8.9-26.4-26.7V39.7h14.3v75.8c0,8.1,0.7,13.8,2.1,16.9
			c1.4,3.1,4.5,4.7,9.2,4.7s7.7-1.6,8.8-4.9c1.2-3.3,1.8-9.1,1.8-17.5v-75h14.3V121.4z"/>
		<path d="M674.1,39.5h23.6c15.4,0,23.1,10.1,23.1,30.4c0,8.1-1.4,14.4-4.1,19.1s-6.1,7.5-10.2,8.8c-4.1,1.2-10.1,1.9-18,2v47h-14.5
			V39.5z M688.6,88.5c6.1,0,10.5-1.2,13.1-3.7c2.6-2.5,4-7.4,4-14.9c0-7.5-1.2-12.6-3.5-15.3c-2.3-2.7-6.8-4-13.6-4V88.5z"/>
	</g>
</g>
</svg>
