<?xml version="1.0" encoding="utf-8"?>
<!-- Generator: Adobe Illustrator 23.0.0, SVG Export Plug-In . SVG Version: 6.00 Build 0)  -->
<svg version="1.1" id="Слой_1" xmlns="http://www.w3.org/2000/svg" xmlns:xlink="http://www.w3.org/1999/xlink" x="0px" y="0px"
	 viewBox="0 0 1335 193" style="enable-background:new 0 0 1335 193;" xml:space="preserve">
<g transform="translate(0.000000,193.000000) scale(0.100000,-0.100000)">
	<path d="M4100,1844c-70-19-125-51-179-105c-44-45-94-131-105-185c-6-27-14-32-67-49c-111-33-214-132-254-245c-9-25-19-80-22-122
		l-6-78h172h171V960V860h-170h-170v-59c0-75,29-170,72-233c43-65,131-130,206-154l60-19l17-59c49-162,210-276,390-276h55v165v165
		h100h100V225V60h55c83,0,147,18,217,59c79,48,151,138,175,220c17,57,18,59,65,71c62,16,156,76,196,128c56,70,84,144,90,238l5,84
		h-167h-166v100v100h165h165v59c0,114-59,242-145,313c-37,31-120,73-161,82c-27,6-32,13-43,57c-18,68-82,160-142,205
		c-68,50-140,75-231,81l-78,6v-167v-166h-100h-100v165v165l-57-1C4181,1859,4130,1852,4100,1844z M4140,1620v-90h-95
		c-109,0-110,2-65,73c30,48,109,107,142,107C4138,1710,4140,1700,4140,1620z M4683,1680c45-28,107-108,107-137c0-10-24-13-95-13h-95
		v90C4600,1725,4606,1729,4683,1680z M4138,1293l-3-98l-97-3l-98-3v101v100h100h101L4138,1293z M4470,1225v-165h165h165V960V860
		h-165h-165V695V530h-100h-100v165v165h-165h-165v100v100h165h165v165v165h100h100V1225z M4800,1290v-101l-97,3l-98,3l-3,98l-3,97
		h101h100V1290z M3800,1285v-95h-90c-80,0-90,2-90,18c0,33,59,112,107,142C3798,1395,3800,1394,3800,1285z M5023,1342
		c43-29,70-64,92-116l15-36h-95h-95v96c0,94,0,95,23,89C4975,1371,5002,1356,5023,1342z M3800,635c0-110-2-111-75-63
		c-49,32-105,107-105,140c0,16,10,18,90,18h90V635z M4138,628l3-98h-101h-100v100v101l98-3l97-3L4138,628z M4800,630V530h-100h-100
		v93c0,52,3,97,7,100c3,4,48,7,100,7h93V630z M5120,715c0-24-35-87-62-111c-30-28-89-64-105-64c-10,0-13,26-13,95v95h90
		C5104,730,5120,727,5120,715z M4140,300c0-101-3-104-68-71c-42,22-70,50-101,101c-34,58-31,60,74,60h95V300z M4790,378
		c0-17-36-76-64-106c-25-28-111-74-120-65c-3,4-6,46-6,95v88h95C4764,390,4790,387,4790,378z"/>
</g>
<g>
	<path d="M88,131.8H9v-20.4l81.2-56.2h28v54.2h22.2v22.4h-22.2V150H88V131.8z M88,82.2l-40,27.2h40V82.2z"/>
	<path d="M187.6,88.2l52.6-33H291L215.2,100c25.6,15,60.6,36,84.4,50H245l-57.4-35.2V150h-32.2V55.2h32.2V88.2z"/>
</g>
<g>
	<path d="M692.4,79h-66.2v47.2h66.4v-12.4h-38.4V94.4h68.6V150H596V55.2h126.8V84h-30.4V79z"/>
	<path d="M833.8,79h-89V55.2h93.8c15.6,0,27.4,12.4,27.4,26.8v8.8c0,19.8-18.4,26.4-28.4,26.4l48,32.8h-49.2l-42-32.8H777V150h-32.2
		V94.4h89V79z"/>
	<path d="M898.6,79V55.2H1035V150H898.6V95.4h32.2v30.8h72V79H898.6z"/>
	<path d="M1089.2,126.2h60.8v-71h32.2V150H1057V55.2h32.2V126.2z"/>
	<path d="M1293.2,79h-89V55.2h93.8c15.6,0,27.4,12.4,27.4,26.8v8.8c0,19.8-18.4,26.4-28.4,26.4h-60.6V150h-32.2V94.4h89V79z"/>
</g>
</svg>
