<?xml version="1.0" standalone="no"?>
<!DOCTYPE svg PUBLIC "-//W3C//DTD SVG 20010904//EN"
 "http://www.w3.org/TR/2001/REC-SVG-20010904/DTD/svg10.dtd">
<svg version="1.0" xmlns="http://www.w3.org/2000/svg"
 width="195.000000pt" height="193.000000pt" viewBox="0 0 195.000000 193.000000"
 preserveAspectRatio="xMidYMid meet">
<metadata>
Created by potrace 1.16, written by Peter Selinger 2001-2019
</metadata>
<g transform="translate(0.000000,193.000000) scale(0.100000,-0.100000)"
stroke="none">
<path d="M690 1844 c-70 -19 -125 -51 -179 -105 -44 -45 -94 -131 -105 -185
-6 -27 -14 -32 -67 -49 -111 -33 -214 -132 -254 -245 -9 -25 -19 -80 -22 -122
l-6 -78 172 0 171 0 0 -100 0 -100 -170 0 -170 0 0 -59 c0 -75 29 -170 72
-233 43 -65 131 -130 206 -154 l60 -19 17 -59 c49 -162 210 -276 390 -276 l55
0 0 165 0 165 100 0 100 0 0 -165 0 -165 55 0 c83 0 147 18 217 59 79 48 151
138 175 220 17 57 18 59 65 71 62 16 156 76 196 128 56 70 84 144 90 238 l5
84 -167 0 -166 0 0 100 0 100 165 0 165 0 0 59 c0 114 -59 242 -145 313 -37
31 -120 73 -161 82 -27 6 -32 13 -43 57 -18 68 -82 160 -142 205 -68 50 -140
75 -231 81 l-78 6 0 -167 0 -166 -100 0 -100 0 0 165 0 165 -57 -1 c-32 0 -83
-7 -113 -15z m40 -224 l0 -90 -95 0 c-109 0 -110 2 -65 73 30 48 109 107 142
107 16 0 18 -10 18 -90z m543 60 c45 -28 107 -108 107 -137 0 -10 -24 -13 -95
-13 l-95 0 0 90 c0 105 6 109 83 60z m-545 -387 l-3 -98 -97 -3 -98 -3 0 101
0 100 100 0 101 0 -3 -97z m332 -68 l0 -165 165 0 165 0 0 -100 0 -100 -165 0
-165 0 0 -165 0 -165 -100 0 -100 0 0 165 0 165 -165 0 -165 0 0 100 0 100
165 0 165 0 0 165 0 165 100 0 100 0 0 -165z m330 65 l0 -101 -97 3 -98 3 -3
98 -3 97 101 0 100 0 0 -100z m-1000 -5 l0 -95 -90 0 c-80 0 -90 2 -90 18 0
33 59 112 107 142 71 45 73 44 73 -65z m1223 57 c43 -29 70 -64 92 -116 l15
-36 -95 0 -95 0 0 96 c0 94 0 95 23 89 12 -4 39 -19 60 -33z m-1223 -707 c0
-110 -2 -111 -75 -63 -49 32 -105 107 -105 140 0 16 10 18 90 18 l90 0 0 -95z
m338 -7 l3 -98 -101 0 -100 0 0 100 0 101 98 -3 97 -3 3 -97z m662 2 l0 -100
-100 0 -100 0 0 93 c0 52 3 97 7 100 3 4 48 7 100 7 l93 0 0 -100z m320 85 c0
-24 -35 -87 -62 -111 -30 -28 -89 -64 -105 -64 -10 0 -13 26 -13 95 l0 95 90
0 c74 0 90 -3 90 -15z m-980 -415 c0 -101 -3 -104 -68 -71 -42 22 -70 50 -101
101 -34 58 -31 60 74 60 l95 0 0 -90z m650 78 c0 -17 -36 -76 -64 -106 -25
-28 -111 -74 -120 -65 -3 4 -6 46 -6 95 l0 88 95 0 c69 0 95 -3 95 -12z"/>
</g>
</svg>
