<?xml version="1.0" standalone="no"?>
<!DOCTYPE svg PUBLIC "-//W3C//DTD SVG 20010904//EN"
 "http://www.w3.org/TR/2001/REC-SVG-20010904/DTD/svg10.dtd">
<svg version="1.0" xmlns="http://www.w3.org/2000/svg"
 width="1000.000000pt" height="999.000000pt" viewBox="0 0 1000.000000 999.000000"
 preserveAspectRatio="xMidYMid meet">
<metadata>
Created by potrace 1.16, written by Peter Selinger 2001-2019
</metadata>
<g transform="translate(0.000000,999.000000) scale(0.100000,-0.100000)"
fill="#000000" stroke="none">
<path d="M4720 9984 c-926 -66 -1722 -329 -2459 -811 -1130 -739 -1914 -1908
-2170 -3233 -267 -1386 64 -2813 914 -3945 967 -1287 2506 -2034 4105 -1992
256 7 385 18 621 52 1478 214 2792 1094 3563 2385 816 1365 929 3052 304 4515
-677 1583 -2135 2716 -3832 2976 -244 37 -409 50 -701 53 -159 2 -315 2 -345
0z m713 -1663 c622 -127 1112 -606 1248 -1220 60 -274 44 -566 -46 -837 -67
-201 -190 -412 -330 -561 l-77 -83 401 0 401 0 0 -155 0 -155 -583 0 -583 0
-375 -312 -374 -313 958 -3 957 -2 0 -155 0 -155 -1147 0 -1148 0 -270 -226
c-257 -214 -330 -284 -394 -378 -47 -68 -99 -180 -128 -273 -24 -80 -27 -103
-27 -258 -1 -137 3 -184 18 -240 97 -359 361 -617 723 -707 78 -20 114 -22
328 -22 189 0 259 4 329 17 127 26 238 63 341 115 197 98 310 194 473 402 l20
25 256 -170 c140 -94 256 -173 256 -177 0 -4 -27 -43 -60 -86 -319 -424 -789
-687 -1328 -743 -170 -17 -580 -6 -704 19 -480 100 -888 407 -1106 831 -69
134 -104 226 -138 366 -120 498 26 1056 374 1426 l74 79 -401 0 -401 0 0 155
0 155 583 0 582 0 375 313 374 312 -957 3 -957 2 0 155 0 155 1146 0 1146 0
257 214 c141 118 287 246 324 285 284 301 329 788 106 1150 -58 95 -187 230
-274 288 -207 139 -394 181 -745 169 -201 -6 -286 -20 -426 -66 -247 -83 -478
-252 -631 -465 l-21 -29 -247 164 c-136 91 -252 168 -258 172 -23 14 117 192
254 323 298 285 676 463 1092 515 40 4 198 7 352 6 242 -3 295 -6 388 -25z"/>
</g>
</svg>
