<?xml version="1.0" standalone="no"?>
<!DOCTYPE svg PUBLIC "-//W3C//DTD SVG 20010904//EN"
 "http://www.w3.org/TR/2001/REC-SVG-20010904/DTD/svg10.dtd">
<svg version="1.0" xmlns="http://www.w3.org/2000/svg"
 width="163.000000pt" height="166.000000pt" viewBox="0 0 163.000000 166.000000"
 preserveAspectRatio="xMidYMid meet">
<metadata>
Created by potrace 1.16, written by Peter Selinger 2001-2019
</metadata>
<g transform="translate(0.000000,166.000000) scale(0.100000,-0.100000)"
fill="#000000" stroke="none">
<path d="M656 1603 c-304 -65 -548 -311 -610 -615 -87 -424 190 -844 616 -932
423 -88 844 191 932 616 101 489 -280 952 -781 947 -48 0 -119 -7 -157 -16z
m288 -344 c21 -6 58 -29 82 -51 74 -68 88 -167 35 -239 -27 -37 -27 -39 10
-39 28 0 30 -2 27 -32 l-3 -33 -85 -5 c-67 -4 -93 -11 -125 -30 l-40 -25 125
-5 125 -5 3 -32 3 -33 -187 0 c-186 0 -188 0 -226 -26 -96 -67 -93 -175 6
-227 61 -31 186 -31 241 1 46 28 66 52 81 102 9 29 16 36 42 38 29 3 32 1 32
-25 -1 -71 -78 -167 -156 -194 -50 -17 -176 -17 -232 0 -131 38 -196 193 -123
292 27 37 27 39 -10 39 -28 0 -30 2 -27 33 l3 32 85 5 c67 4 93 11 125 30 l40
25 -125 5 -125 5 -3 33 -3 32 187 0 c186 0 188 0 226 26 96 67 93 175 -6 227
-61 31 -186 31 -241 -1 -46 -28 -66 -52 -81 -102 -9 -29 -16 -36 -42 -38 -29
-3 -32 0 -32 23 0 60 60 148 123 182 64 33 180 38 271 12z"/>
</g>
</svg>
